<svg aria-hidden="true" style="width:0;height:0;position:absolute;overflow:hidden" xmlns="http://www.w3.org/2000/svg"><defs><symbol id="icon-film" viewBox="0 0 32 32"><path fill="none" stroke="#fff" style="stroke:var(--color1,#fff)" stroke-linejoin="round" stroke-linecap="round" stroke-width="2.17" d="M26.427 2.667H5.574a2.907 2.907 0 0 0-2.907 2.907v20.853a2.907 2.907 0 0 0 2.907 2.907h20.853a2.907 2.907 0 0 0 2.907-2.907V5.574a2.907 2.907 0 0 0-2.907-2.907zM9.333 2.667v26.667M22.667 2.667v26.667M2.667 16h26.667M2.667 9.333h6.667M2.667 22.667h6.667M22.667 22.667h6.667M22.667 9.333h6.667"/></symbol><symbol id="icon-search" viewBox="0 0 50 50"><path d="M21 3C11.621 3 4 10.621 4 20s7.621 17 17 17c3.71 0 7.14-1.195 9.938-3.219l13.156 13.125 2.812-2.812-13-13.032A16.923 16.923 0 0 0 38 20c0-9.379-7.621-17-17-17Zm0 2c8.297 0 15 6.703 15 15s-6.703 15-15 15S6 28.297 6 20 12.703 5 21 5Z"/></symbol></defs></svg>