<svg aria-hidden="true" style="width:0;height:0;position:absolute;overflow:hidden" xmlns="http://www.w3.org/2000/svg"><defs><symbol id="icon-close" viewBox="0 0 32 32"><path d="M23.884 6.706 16 14.59 8.116 6.706a.996.996 0 0 0-1.672.736c0 .26.099.497.262.674l-.001-.001 7.88 7.884-7.882 7.882a.992.992 0 0 0-.309.709V24.603c0 .415.254.771.614.921l.007.002a.991.991 0 0 0 .781-.011l-.006.003c.127-.056.234-.132.324-.226L16 17.41l7.884 7.884a.998.998 0 0 0 1.409-1.411l.001.001L17.41 16l7.884-7.886a.992.992 0 0 0 .309-.709V7.391a.995.995 0 0 0-1.402-.913l.006-.003a1.003 1.003 0 0 0-.324.226v.002z"/></symbol></defs></svg>