<svg aria-hidden="true" style="width:0;height:0;position:absolute;overflow:hidden" xmlns="http://www.w3.org/2000/svg"><defs><symbol id="icon-close" viewBox="0 0 32 32"><path d="M23.884 6.706 16 14.59 8.116 6.706a.996.996 0 0 0-1.672.736c0 .26.099.497.262.674l-.001-.001 7.88 7.884-7.882 7.882a.992.992 0 0 0-.309.709V24.603c0 .415.254.771.614.921l.007.002a.991.991 0 0 0 .781-.011l-.006.003c.127-.056.234-.132.324-.226L16 17.41l7.884 7.884a.998.998 0 0 0 1.409-1.411l.001.001L17.41 16l7.884-7.886a.992.992 0 0 0 .309-.709V7.391a.995.995 0 0 0-1.402-.913l.006-.003a1.003 1.003 0 0 0-.324.226v.002z"/></symbol><symbol id="linkedin" viewBox="0 0 32 32"><path d="M7.449 10.295H1.025a.516.516 0 0 0-.516.516v20.638c0 .285.231.516.516.516h6.424a.516.516 0 0 0 .516-.516V10.811a.516.516 0 0 0-.516-.516zM4.239.035A4.242 4.242 0 0 0 0 4.269a4.242 4.242 0 0 0 4.239 4.236c2.336 0 4.236-1.9 4.236-4.236S6.575.035 4.239.035zM23.789 9.782c-2.58 0-4.487 1.109-5.644 2.369v-1.34a.516.516 0 0 0-.516-.516h-6.152a.516.516 0 0 0-.516.516v20.638c0 .285.231.516.516.516h6.41a.516.516 0 0 0 .516-.516V21.238c0-3.441.935-4.781 3.333-4.781 2.612 0 2.82 2.149 2.82 4.958v10.034c0 .285.231.516.516.516h6.412a.516.516 0 0 0 .516-.516v-11.32c0-5.116-.976-10.347-8.211-10.347z"/></symbol></defs></svg>