<svg aria-hidden="true" style="width:0;height:0;position:absolute;overflow:hidden" xmlns="http://www.w3.org/2000/svg"><defs><symbol id="icon-film" viewBox="0 0 32 32"><path fill="none" stroke="#fff" style="stroke:var(--color1,#fff)" stroke-linejoin="round" stroke-linecap="round" stroke-width="2.17" d="M26.427 2.667H5.574a2.907 2.907 0 0 0-2.907 2.907v20.853a2.907 2.907 0 0 0 2.907 2.907h20.853a2.907 2.907 0 0 0 2.907-2.907V5.574a2.907 2.907 0 0 0-2.907-2.907zM9.333 2.667v26.667M22.667 2.667v26.667M2.667 16h26.667M2.667 9.333h6.667M2.667 22.667h6.667M22.667 22.667h6.667M22.667 9.333h6.667"/></symbol><symbol id="icon-search" viewBox="0 0 50 50"><path d="M21 3C11.621 3 4 10.621 4 20s7.621 17 17 17c3.71 0 7.14-1.195 9.938-3.219l13.156 13.125 2.812-2.812-13-13.032A16.923 16.923 0 0 0 38 20c0-9.379-7.621-17-17-17Zm0 2c8.297 0 15 6.703 15 15s-6.703 15-15 15S6 28.297 6 20 12.703 5 21 5Z"/></symbol><symbol id="icon-close" viewBox="0 0 32 32"><path d="M23.884 6.706 16 14.59 8.116 6.706a.996.996 0 0 0-1.672.736c0 .26.099.497.262.674l-.001-.001 7.88 7.884-7.882 7.882a.992.992 0 0 0-.309.709V24.603c0 .415.254.771.614.921l.007.002a.991.991 0 0 0 .781-.011l-.006.003c.127-.056.234-.132.324-.226L16 17.41l7.884 7.884a.998.998 0 0 0 1.409-1.411l.001.001L17.41 16l7.884-7.886a.992.992 0 0 0 .309-.709V7.391a.995.995 0 0 0-1.402-.913l.006-.003a1.003 1.003 0 0 0-.324.226v.002z"/></symbol><symbol id="icon-play3" viewBox="0 0 32 32"><path fill="red" style="fill:var(--color1,red)" d="M29.424 9.266a3.523 3.523 0 0 0-2.443-2.462l-.025-.006C24.764 6.22 16 6.22 16 6.22s-8.764 0-10.956.578a3.507 3.507 0 0 0-2.468 2.468C2 11.456 2 16 2 16s0 4.566.576 6.734a3.51 3.51 0 0 0 2.468 2.468C7.236 25.78 16 25.78 16 25.78s8.764 0 10.956-.578a3.523 3.523 0 0 0 2.462-2.443l.006-.025C30 20.544 30 16 30 16s0-4.544-.576-6.734z"/><path fill="#fff" style="fill:var(--color2,#fff)" d="m13.186 20.22 7.288-4.196-7.288-4.22v8.416z"/></symbol><symbol id="icon-arrow-up" viewBox="0 0 20 20"><path d="M9 3.828 2.929 9.899 1.515 8.485 10 0l8.485 8.485-1.414 1.414L11 3.828V20H9V3.828z"/></symbol></defs></svg>