<svg aria-hidden="true" style="position: absolute; width: 0; height: 0; overflow: hidden;" version="1.1" xmlns="http://www.w3.org/2000/svg"
   xmlns:xlink="http://www.w3.org/1999/xlink">
   <defs>
      <symbol id="icon-close" viewBox="0 0 32 32">
         <path
            d="M23.884 6.706l-7.884 7.884-7.884-7.884c-0.177-0.162-0.414-0.262-0.674-0.262-0.551 0-0.998 0.447-0.998 0.998 0 0.26 0.099 0.497 0.262 0.674l-0.001-0.001 7.88 7.884-7.882 7.882c-0.188 0.179-0.306 0.431-0.309 0.709v0.001c-0 0.004-0 0.008-0 0.012 0 0.415 0.254 0.771 0.614 0.921l0.007 0.002c0.112 0.047 0.241 0.074 0.377 0.074 0.144 0 0.28-0.030 0.404-0.085l-0.006 0.003c0.127-0.056 0.234-0.132 0.324-0.226l0-0 7.886-7.882 7.884 7.884c0.177 0.161 0.413 0.26 0.672 0.26 0.551 0 0.998-0.447 0.998-0.998 0-0.259-0.099-0.495-0.261-0.673l0.001 0.001-7.884-7.884 7.884-7.886c0.188-0.179 0.306-0.431 0.309-0.709v-0.001c0-0.004 0-0.008 0-0.013 0-0.275-0.111-0.524-0.292-0.705v0c-0.181-0.181-0.43-0.293-0.706-0.293-0.144 0-0.28 0.030-0.404 0.085l0.006-0.003c-0.127 0.056-0.234 0.132-0.324 0.226l-0 0v0.002z">
         </path>
      </symbol>
   </defs>
</svg>