<svg aria-hidden="true" style="position: absolute; width: 0; height: 0; overflow: hidden;" version="1.1" xmlns="http://www.w3.org/2000/svg"
   xmlns:xlink="http://www.w3.org/1999/xlink">
   <defs>
      <symbol id="icon-close" viewBox="0 0 32 32">
         <path
            d="M23.884 6.706l-7.884 7.884-7.884-7.884c-0.177-0.162-0.414-0.262-0.674-0.262-0.551 0-0.998 0.447-0.998 0.998 0 0.26 0.099 0.497 0.262 0.674l-0.001-0.001 7.88 7.884-7.882 7.882c-0.188 0.179-0.306 0.431-0.309 0.709v0.001c-0 0.004-0 0.008-0 0.012 0 0.415 0.254 0.771 0.614 0.921l0.007 0.002c0.112 0.047 0.241 0.074 0.377 0.074 0.144 0 0.28-0.030 0.404-0.085l-0.006 0.003c0.127-0.056 0.234-0.132 0.324-0.226l0-0 7.886-7.882 7.884 7.884c0.177 0.161 0.413 0.26 0.672 0.26 0.551 0 0.998-0.447 0.998-0.998 0-0.259-0.099-0.495-0.261-0.673l0.001 0.001-7.884-7.884 7.884-7.886c0.188-0.179 0.306-0.431 0.309-0.709v-0.001c0-0.004 0-0.008 0-0.013 0-0.275-0.111-0.524-0.292-0.705v0c-0.181-0.181-0.43-0.293-0.706-0.293-0.144 0-0.28 0.030-0.404 0.085l0.006-0.003c-0.127 0.056-0.234 0.132-0.324 0.226l-0 0v0.002z">
         </path>
      </symbol>
      <symbol id="linkedin" viewBox="0 0 32 32">
         <path
            d="M7.449 10.295h-6.424c-0.285 0-0.516 0.231-0.516 0.516v20.638c0 0.285 0.231 0.516 0.516 0.516h6.424c0.285 0 0.516-0.231 0.516-0.516v-20.638c0-0.285-0.231-0.516-0.516-0.516z">
         </path>
         <path d="M4.239 0.035c-2.337 0-4.239 1.9-4.239 4.234 0 2.336 1.902 4.236 4.239 4.236 2.336 0 4.236-1.9 4.236-4.236s-1.9-4.234-4.236-4.234z"></path>
         <path
            d="M23.789 9.782c-2.58 0-4.487 1.109-5.644 2.369v-1.34c0-0.285-0.231-0.516-0.516-0.516h-6.152c-0.285 0-0.516 0.231-0.516 0.516v20.638c0 0.285 0.231 0.516 0.516 0.516h6.41c0.285 0 0.516-0.231 0.516-0.516v-10.211c0-3.441 0.935-4.781 3.333-4.781 2.612 0 2.82 2.149 2.82 4.958v10.034c0 0.285 0.231 0.516 0.516 0.516h6.412c0.285 0 0.516-0.231 0.516-0.516v-11.32c0-5.116-0.976-10.347-8.211-10.347z">
         </path>
      </symbol>
   </defs>
</svg>